<?xml version="1.0" standalone="no"?>
<!DOCTYPE svg PUBLIC "-//W3C//DTD SVG 20010904//EN"
 "http://www.w3.org/TR/2001/REC-SVG-20010904/DTD/svg10.dtd">
<svg version="1.0" xmlns="http://www.w3.org/2000/svg"
 width="260.000000pt" height="260.000000pt" viewBox="0 0 260.000000 260.000000"
 preserveAspectRatio="xMidYMid meet">
<metadata>
Created by potrace 1.14, written by Peter Selinger 2001-2017
</metadata>
<g transform="translate(0.000000,260.000000) scale(0.100000,-0.100000)"
fill="#000000" stroke="none">
<path d="M1434 2390 c-21 -8 -37 -39 -48 -93 -9 -40 -38 -64 -97 -81 -86 -26
-120 -21 -180 24 -30 23 -65 43 -77 47 -47 12 -172 -66 -172 -107 0 -10 8 -45
19 -78 l18 -60 -78 -71 -79 -72 -54 15 c-104 30 -127 23 -184 -60 -43 -63 -41
-78 28 -144 l62 -60 -26 -83 c-14 -46 -34 -91 -44 -100 -14 -13 -98 -37 -128
-37 -1 0 -10 -7 -18 -16 -12 -12 -16 -37 -16 -104 l0 -88 68 -17 c100 -26 106
-32 137 -132 l27 -88 -49 -45 c-69 -62 -78 -82 -58 -123 8 -18 29 -49 46 -70
35 -43 66 -47 156 -21 l56 16 75 -75 75 -75 -16 -59 c-26 -92 -24 -99 38 -138
30 -20 67 -40 81 -45 30 -12 47 -3 126 63 l47 39 93 -22 c100 -24 118 -33 118
-59 0 -33 22 -93 41 -112 16 -16 33 -19 102 -19 104 0 122 11 137 84 14 66 28
79 110 101 114 30 107 31 158 -12 79 -66 96 -75 126 -63 55 21 136 80 136 99
0 11 -9 48 -20 83 l-20 63 53 47 c73 65 62 73 -96 72 -119 0 -124 -1 -223 -41
-130 -54 -201 -72 -311 -79 -341 -24 -669 180 -790 492 -22 59 -27 89 -31 200
-8 233 42 361 202 519 179 177 354 243 615 232 138 -6 183 -16 331 -80 102
-43 197 -57 295 -43 75 12 69 43 -22 107 l-22 15 21 72 c27 94 20 110 -65 151
-36 17 -73 31 -84 31 -11 0 -43 -20 -72 -45 -60 -52 -93 -57 -192 -29 -70 20
-82 32 -103 107 -13 45 -22 60 -42 67 -31 12 -151 12 -180 0z"/>
<path d="M1185 1891 c-68 -5 -80 -9 -83 -25 -5 -26 24 -46 64 -46 35 0 40 -9
46 -99 2 -21 10 -37 21 -42 9 -5 25 -13 35 -18 23 -11 28 -85 8 -140 -12 -37
-12 -47 0 -77 18 -43 18 -101 -1 -137 -12 -24 -12 -32 1 -62 18 -45 18 -108
-1 -146 -13 -24 -13 -33 -3 -52 6 -12 14 -72 16 -134 l4 -112 104 -81 c57 -44
110 -83 119 -86 9 -4 44 15 93 51 118 88 152 124 152 160 0 16 7 43 15 58 13
26 13 34 -1 78 -17 52 -14 114 8 149 9 14 9 22 0 33 -21 25 -26 108 -9 149 13
31 13 41 2 75 -19 51 -18 101 1 138 14 27 14 33 -2 68 -21 46 -11 70 29 75 28
3 28 3 44 97 8 48 9 50 46 56 84 13 86 63 4 73 -62 7 -597 5 -712 -3z m575
-111 l0 -40 -235 0 -235 0 0 40 0 40 235 0 235 0 0 -40z m-84 -152 c-4 -23 -8
-43 -10 -45 -1 -1 -64 -13 -140 -25 -119 -19 -138 -20 -146 -8 -11 17 -13 103
-3 113 3 4 74 7 156 7 l150 0 -7 -42z m-1 -140 c3 -13 2 -43 -3 -67 l-7 -45
-100 -18 c-55 -10 -120 -17 -145 -16 l-45 3 -3 56 -3 56 98 18 c54 9 114 21
133 25 58 13 69 11 75 -12z m-3 -252 c-1 -33 -4 -62 -6 -64 -9 -8 -230 -43
-259 -40 -32 3 -32 4 -35 61 -2 31 -2 57 0 57 2 1 57 12 123 25 66 12 134 22
150 22 l30 -2 -3 -59z m8 -201 c0 -44 -4 -67 -12 -69 -7 -2 -49 -12 -93 -23
-74 -17 -80 -20 -80 -43 0 -25 0 -25 87 -22 124 5 127 -14 17 -103 -39 -31
-75 -55 -82 -52 -7 3 -43 31 -80 62 l-68 56 3 102 3 102 140 26 c77 15 146 27
153 28 8 1 12 -18 12 -64z"/>
</g>
</svg>
