<?xml version="1.0" encoding="utf-8"?>
<!-- Generator: Adobe Illustrator 27.0.0, SVG Export Plug-In . SVG Version: 6.00 Build 0)  -->
<svg version="1.1" id="Layer_1" xmlns="http://www.w3.org/2000/svg" xmlns:xlink="http://www.w3.org/1999/xlink" x="0px" y="0px"
	 viewBox="0 0 500 500" style="enable-background:new 0 0 500 500;" xml:space="preserve">
<g transform="translate(0.000000,500.000000) scale(0.100000,-0.100000)">
	<path d="M2617.2,4714.1c-16.1-21.4-37.5-77.7-45.5-128.5c-29.5-150-56.2-179.4-208.9-222.3c-203.5-58.9-222.3-56.2-356.2,67
		c-131.2,117.8-155.3,120.5-337.4,5.4c-131.2-83-141.9-117.8-88.4-289.2l42.8-139.3l-152.7-150l-150-152.7l-139.3,42.8
		c-171.4,53.6-206.2,42.8-291.9-88.4c-117.8-184.8-115.2-211.6,21.4-345.5l125.9-117.8l-45.5-155.3
		c-75-262.5-77.7-265.1-198.2-283.9c-206.2-32.1-216.9-48.2-208.9-265.1l8-190.1l93.7-32.1c50.9-18.7,125.9-40.2,166-48.2
		c53.6-13.4,77.7-37.5,91.1-91.1c8-40.2,34.8-131.2,56.2-200.9l40.2-128.5l-125.9-117.8c-139.3-128.5-141.9-158-24.1-342.8
		c85.7-131.2,120.5-141.9,291.9-88.4l141.9,45.5l144.6-152.7c77.7-83,141.9-158,141.9-168.7c0-8-16.1-72.3-37.5-141.9
		c-18.7-69.6-29.5-144.6-21.4-168.7C1570,616.6,1803,464,1859.3,464c18.7,0,91.1,50.9,158,115.2l120.5,115.2l198.2-50.9l195.5-53.6
		l29.5-133.9c40.2-192.8,58.9-206.2,267.8-206.2c200.9,0,225,16.1,254.4,160.7c34.8,176.8,37.5,182.1,182.1,214.2
		c77.7,18.7,160.7,45.5,190.1,58.9c40.2,21.4,72.3,2.7,174.1-96.4c69.6-67,144.6-123.2,166-123.2c48.2,0,275.8,141.9,305.3,187.5
		c10.7,18.7,0,101.8-26.8,187.5l-48.2,155.3l99.1,85.7c158,139.3,136.6,160.7-163.4,160.7c-246.4,0-273.2-5.4-449.9-93.7
		c-854.3-431.2-1866.6,18.7-2139.8,948c-26.8,91.1-42.8,246.4-42.8,404.4c0,439.2,144.6,782,449.9,1079.3
		c299.9,289.2,634.7,423.1,1047.1,425.8c275.8,2.7,449.9-40.2,707-168.7c184.8-93.7,230.3-104.4,404.4-104.4
		c313.3,0,356.2,42.8,190.1,182.1l-96.4,77.7l45.5,163.4c53.6,192.8,42.8,214.2-155.3,316c-144.6,72.3-174.1,67-299.9-67
		c-85.7-91.1-128.5-96.4-313.3-48.2c-163.4,42.8-200.9,77.7-222.3,211.6c-10.7,61.6-32.1,128.5-48.2,147.3
		C2997.5,4762.3,2657.3,4762.3,2617.2,4714.1z"/>
	<path d="M2030.7,3680.4c-21.4-13.4-32.1-45.5-26.8-72.3c5.4-37.5,34.8-53.6,107.1-58.9l99.1-8l8-152.7c8-144.6,13.4-152.7,83-160.7
		c69.6-8,72.3-16.1,72.3-155.3c0-80.3-16.1-168.7-32.1-198.2c-26.8-40.2-26.8-58.9,0-85.7c42.8-42.8,42.8-294.6,0-337.4
		c-26.8-26.8-26.8-45.5,0-85.7c42.8-67,42.8-299.9,0-342.8c-26.8-26.8-26.8-45.5,0-85.7c18.7-32.1,32.1-147.3,32.1-278.5v-227.6
		l216.9-187.5c120.5-104.4,227.6-190.1,235.7-190.1c8,0,115.2,85.7,238.4,187.5c203.5,174.1,219.6,195.5,219.6,289.2
		c0,56.2,16.1,117.8,32.1,133.9c26.8,26.8,26.8,45.5,0,85.7c-42.8,67-42.8,299.9,0,342.8c26.8,26.8,26.8,45.5,0,85.7
		c-42.8,67-42.8,299.9,0,342.8c26.8,26.8,26.8,45.5,0,85.7c-42.8,67-42.8,299.9,0,342.8c26.8,26.8,26.8,45.5,0,85.7
		c-16.1,29.5-32.1,83-32.1,117.8c0,50.9,16.1,67,75,75c69.6,8,72.3,16.1,80.3,163.4c8,139.3,13.4,152.7,72.3,152.7
		c96.4,0,147.3,26.8,147.3,80.3c0,26.8-18.7,56.2-42.8,64.3C3551.8,3712.5,2070.8,3707.2,2030.7,3680.4z M3284,3463.4v-80.3h-455.3
		h-455.3v80.3v80.3h455.3H3284V3463.4z M3118,3136.7l-8-88.4l-241-45.5c-350.8-67-334.8-69.6-334.8,85.7v133.9h297.3H3126
		L3118,3136.7z M3118,2761.8l-8-141.9l-241-45.5c-348.2-67-334.8-69.6-334.8,83v131.2l275.8,53.6c150,29.5,283.9,53.6,294.6,56.2
		C3115.3,2898.4,3123.3,2836.8,3118,2761.8z M3118,2333.3l-8-141.9l-214.2-45.5c-117.8-24.1-246.4-45.5-286.6-45.5
		c-72.3-2.7-75,2.7-75,128.5v128.5L2810,2411c150,32.1,283.9,56.2,294.6,58.9C3115.3,2469.9,3123.3,2408.3,3118,2333.3z
		 M3123.3,1902.1v-141.9l-166-32.1c-182.1-34.8-225-61.6-198.2-125.9c13.4-40.2,42.8-42.8,190.1-26.8
		c160.7,16.1,174.1,13.4,174.1-34.8c0-32.1-61.6-101.8-150-176.8l-150-123.2l-144.6,125.9l-144.6,125.9v216.9v216.9l289.2,56.2
		c158,29.5,289.2,56.2,294.6,58.9C3120.7,2041.4,3123.3,1979.8,3123.3,1902.1z"/>
</g>
</svg>
