<svg width="191" height="217" viewBox="0 0 191 217" fill="none" xmlns="http://www.w3.org/2000/svg">
<path d="M106.548 1.7364C105.711 2.7636 104.598 5.466 104.182 7.9044C102.648 15.1044 101.26 16.5156 93.3196 18.5748C82.7376 21.402 81.76 21.2724 74.7972 15.3588C67.9748 9.70441 66.7216 9.57479 57.2524 15.0996C50.43 19.0836 49.8736 20.754 52.6556 28.9812L54.8812 35.6676L46.9408 42.8676L39.1408 50.1972L31.8972 48.1428C22.9844 45.57 21.1748 46.0884 16.7184 52.386C10.5928 61.2564 10.728 62.5428 17.8312 68.97L24.378 74.6244L22.012 82.0788C18.112 94.6788 17.9716 94.8036 11.7056 95.706C0.983161 97.2468 0.426762 98.0196 0.842762 108.431L1.25876 117.556L6.13116 119.096C8.77796 119.994 12.678 121.026 14.7632 121.41C17.5504 122.053 18.8036 123.21 19.5004 125.783C19.9164 127.712 21.31 132.08 22.4228 135.426L24.5132 141.594L17.9664 147.248C10.7228 153.416 10.5876 154.832 16.7132 163.703C21.1696 170 22.9792 170.514 31.892 167.946L39.2708 165.762L46.79 173.092C50.8304 177.076 54.1688 180.676 54.1688 181.189C54.1688 181.573 53.3316 184.66 52.2188 188C51.2464 191.341 50.6848 194.941 51.106 196.098C52.094 198.416 64.21 205.741 67.1376 205.741C68.11 205.741 71.8748 203.298 75.3536 200.212L81.6196 194.682L91.926 197.125L102.092 199.698L103.626 206.125C105.716 215.38 106.689 216.023 117.552 216.023C127.998 216.023 129.252 215.25 130.78 208.309C132.59 199.823 132.73 199.568 140.25 198.028C144.29 197.13 148.606 195.844 150.135 195.2C152.225 194.173 153.894 195.071 159.188 199.828C162.807 203.044 166.707 205.741 167.82 205.741C170.326 205.741 182.162 198.93 183.696 196.741C184.252 195.844 183.696 191.855 182.302 187.741L179.796 180.287L184.949 176.173C193.165 169.487 192.052 168.46 176.452 168.46C163.639 168.46 162.246 168.719 153.057 172.957C108.634 193.655 55.994 172.06 41.7876 127.453C40.394 123.08 39.562 115.626 39.562 108.042C39.562 86.9604 47.0812 70.506 62.9568 56.2356C78.5516 42.354 95.9612 35.9268 117.406 35.7972C131.748 35.6676 140.801 37.7268 154.17 43.8948C163.78 48.3924 166.146 48.906 175.199 48.906C191.49 48.906 193.721 46.8516 185.084 40.1652L180.071 36.4356L182.437 28.5924C185.224 19.338 184.663 18.3108 174.362 13.4244C166.842 9.954 165.308 10.2084 158.767 16.6404C154.31 21.0132 152.085 21.2676 142.475 18.954C133.978 16.8996 132.028 15.2244 130.916 8.7972C130.359 5.8404 129.246 2.62921 128.409 1.72681C126.324 -0.57719 108.634 -0.577204 106.548 1.7364Z" fill="#DBC823"/>
<path d="M76.0504 51.354C74.9376 51.9972 74.3812 53.538 74.6568 54.8244C74.9376 56.6244 76.4664 57.3972 80.226 57.6516L85.3792 58.0356L85.7952 65.3652C86.2112 72.306 86.492 72.6948 90.1112 73.0788C93.7304 73.4628 93.8708 73.8516 93.8708 80.5332C93.8708 84.3876 93.0336 88.6308 92.2016 90.0468C90.808 91.9764 90.808 92.874 92.2016 94.1604C94.4272 96.2148 94.4272 108.301 92.2016 110.356C90.808 111.642 90.808 112.54 92.2016 114.469C94.4272 117.685 94.4272 128.864 92.2016 130.924C90.808 132.21 90.808 133.108 92.2016 135.037C93.174 136.578 93.8708 142.108 93.8708 148.405V159.33L105.15 168.33C111.416 173.341 116.985 177.455 117.406 177.455C117.822 177.455 123.396 173.341 129.803 168.455C140.385 160.098 141.222 159.071 141.222 154.573C141.222 151.876 142.059 148.919 142.891 148.146C144.285 146.86 144.285 145.962 142.891 144.032C140.666 140.816 140.666 129.637 142.891 127.578C144.285 126.292 144.285 125.394 142.891 123.464C140.666 120.248 140.666 109.069 142.891 107.01C144.285 105.724 144.285 104.826 142.891 102.896C140.666 99.6804 140.666 88.5012 142.891 86.442C144.285 85.1556 144.285 84.258 142.891 82.3284C142.054 80.9124 141.222 78.3444 141.222 76.674C141.222 74.2308 142.059 73.458 145.122 73.074C148.741 72.69 148.882 72.3012 149.298 65.2308C149.714 58.5444 149.994 57.9012 153.057 57.9012C158.07 57.9012 160.717 56.6148 160.717 54.0468C160.717 52.7604 159.744 51.3492 158.491 50.9604C155.148 49.8132 78.1356 50.0676 76.0504 51.354ZM141.222 61.77V65.6244H117.546H93.8708V61.77V57.9156H117.546H141.222V61.77ZM132.59 77.4516L132.174 81.6948L119.642 83.8788C101.4 87.0948 102.232 87.2196 102.232 79.7652V73.338H117.692H133.006L132.59 77.4516ZM132.59 95.4468L132.174 102.258L119.642 104.442C101.536 107.658 102.232 107.783 102.232 100.458V94.1604L116.574 91.5876C124.374 90.1716 131.337 89.0148 131.893 88.89C132.45 88.89 132.866 91.8468 132.59 95.4468ZM132.59 116.015L132.174 122.826L121.036 125.01C114.91 126.167 108.223 127.194 106.132 127.194C102.373 127.324 102.232 127.064 102.232 121.026V114.858L116.574 112.285C124.374 110.744 131.337 109.588 131.893 109.458C132.45 109.458 132.866 112.415 132.59 116.015ZM132.866 136.712V143.524L124.234 145.064C114.764 146.735 112.534 148.021 113.927 151.108C114.624 153.037 116.153 153.162 123.812 152.394C132.169 151.621 132.866 151.751 132.866 154.064C132.866 155.605 129.662 158.951 125.066 162.551L117.266 168.464L109.746 162.421L102.227 156.378V145.967V135.556L117.266 132.858C125.482 131.442 132.304 130.16 132.585 130.031C132.73 130.026 132.866 132.983 132.866 136.712Z" fill="#DBC823"/>
</svg>
