<svg style="wigth: 0; height: 0; visibility: hidden;"
  xmlns="http://www.w3.org/2000/svg">

  <!--* Telegram -->
  <symbol id="svg-telegram" viewBox="0 0 48 48">
    <g clip-path="url(#clip0_112_388)">
      <path d="M24 48C37.2548 48 48 37.2548 48 24C48 10.7452 37.2548 0 24 0C10.7452 0 0 10.7452 0 24C0 37.2548 10.7452 48 24 48Z" />
      <path d="M10.9815 23.4799L34.1216 14.5579C35.1956 14.1699 36.1336 14.8199 35.7856 16.4439L35.7875 16.4419L31.8475 35.0039C31.5555 36.3199 30.7736 36.6399 29.6796 36.0199L23.6796 31.5979L20.7855 34.3859C20.4655 34.7059 20.1955 34.9759 19.5755 34.9759L20.0015 28.8699L31.1215 18.8239C31.6056 18.3979 31.0135 18.1579 30.3755 18.5819L16.6336 27.2339L10.7095 25.3859C9.42355 24.9779 9.39555 24.0999 10.9815 23.4799Z" fill="white"/>
    </g>
    <defs>
      <clipPath id="clip0_112_388">
        <rect width="48" height="48" fill="white"/>
      </clipPath>
    </defs>
  </symbol>
  <!--* Telegram //-->

  <!--* VK -->
  <symbol id="svg-vk" viewBox="0 0 48 48">
    <g clip-path="url(#clip0_112_379)">
      <path d="M24 48C37.2548 48 48 37.2548 48 24C48 10.7452 37.2548 0 24 0C10.7452 0 0 10.7452 0 24C0 37.2548 10.7452 48 24 48Z" />
      <path fill-rule="evenodd" clip-rule="evenodd" d="M23.0933 34.5262H24.977C24.977 34.5262 25.546 34.4637 25.8365 34.1506C26.1039 33.8631 26.0953 33.3232 26.0953 33.3232C26.0953 33.3232 26.0585 30.7956 27.2316 30.4234C28.388 30.0567 29.873 32.8662 31.447 33.9465C32.6372 34.7641 33.5416 34.5848 33.5416 34.5848L37.7501 34.5262C37.7501 34.5262 39.9517 34.3906 38.9078 32.6596C38.8222 32.518 38.2998 31.3791 35.7787 29.0389C33.1399 26.5897 33.4933 26.9858 36.672 22.7491C38.6079 20.1689 39.3818 18.5936 39.1401 17.919C38.9095 17.2764 37.4857 17.4462 37.4857 17.4462L32.7471 17.4757C32.7471 17.4757 32.3959 17.4278 32.1353 17.5836C31.8808 17.7363 31.7169 18.0922 31.7169 18.0922C31.7169 18.0922 30.967 20.0889 29.9667 21.7869C27.8567 25.3699 27.013 25.559 26.6682 25.3366C25.866 24.818 26.0662 23.2535 26.0662 22.142C26.0662 18.6698 26.5929 17.2221 25.0408 16.8473C24.5257 16.7228 24.1466 16.6406 22.8293 16.6274C21.1386 16.6098 19.7075 16.6325 18.8972 17.0295C18.3582 17.2935 17.9423 17.8818 18.1956 17.9156C18.5088 17.9575 19.2181 18.1068 19.5941 18.6189C20.0797 19.2794 20.0626 20.7631 20.0626 20.7631C20.0626 20.7631 20.3416 24.8506 19.411 25.3584C18.7723 25.7066 17.8961 24.9956 16.015 21.745C15.0511 20.0799 14.3234 18.2394 14.3234 18.2394C14.3234 18.2394 14.183 17.8954 13.9328 17.7115C13.629 17.4886 13.2046 17.4176 13.2046 17.4176L8.70178 17.4471C8.70178 17.4471 8.02582 17.4659 7.77768 17.7598C7.55693 18.0212 7.76014 18.562 7.76014 18.562C7.76014 18.562 11.2854 26.8096 15.277 30.9659C18.937 34.7765 23.0933 34.5262 23.0933 34.5262Z" fill="white"/>
    </g>
    <defs>
      <clipPath id="clip0_112_379">
        <rect width="48" height="48" fill="white"/>
      </clipPath>
    </defs>
  </symbol>
  <!--* VK //-->

  <!--* Whatsapp -->
  <symbol id="svg-whatsapp" viewBox="0 0 48 48">
    <g clip-path="url(#clip0_112_398)">
      <path d="M23.9871 0.0127069C10.7401 0.0155177 0.00357906 10.7567 0.00638989 24.0037C0.00732684 28.5907 1.32364 33.0812 3.79905 36.9429L0.0672913 46.6252C-0.131435 47.1401 0.124914 47.7187 0.639859 47.9174C0.755009 47.9618 0.877281 47.9846 1.00068 47.9844C1.11517 47.985 1.22882 47.9654 1.33648 47.9264L11.3306 44.3585C22.5751 51.3617 37.3677 47.9234 44.3709 36.6789C51.374 25.4343 47.9357 10.6417 36.6912 3.63859C32.8795 1.26456 28.4778 0.00830321 23.9871 0.0127069Z" />
      <path d="M35.422 28.098C35.422 28.098 32.9735 26.8987 31.4404 26.0992C29.7054 25.2058 27.6666 26.8788 26.7072 27.8303C25.214 27.2567 23.8502 26.3909 22.6956 25.2837C21.5882 24.1293 20.7225 22.7655 20.1491 21.2721C21.1005 20.3107 22.7695 18.2739 21.8801 16.5389C21.0905 15.0038 19.8813 12.5573 19.8813 12.5553C19.7116 12.2186 19.3669 12.006 18.9898 12.0056H16.991C14.0801 12.5084 11.9636 15.0483 11.994 18.0021C11.994 21.1402 15.7497 27.1687 18.2823 29.7031C20.8148 32.2375 26.8433 35.9914 29.9833 35.9914C32.9371 36.0218 35.477 33.9052 35.9798 30.9944V28.9956C35.9801 28.6145 35.7638 28.2664 35.422 28.098Z" fill="#FAFAFA"/>
    </g>
    <defs>
      <clipPath id="clip0_112_398">
        <rect width="48" height="48" fill="white"/>
      </clipPath>
    </defs>
  </symbol>
  <!--* Whatsapp //-->

  <!--* Mail -->
  <symbol id="svg-mail" data-name="Layer 1" viewBox="0 0 28 28">
    <circle cx="14" cy="14" r="14"/>
    <path d="M16.629,14A2.629,2.629,0,1,1,14,11.371,2.632,2.632,0,0,1,16.629,14ZM14,5.259a8.741,8.741,0,1,0,4.924,15.962l.025-.018-1.178-1.369-.019.013a6.96,6.96,0,1,1,3.033-4.353,1.3,1.3,0,0,1-1.325,1.141,1.119,1.119,0,0,1-1.039-1.21V14a4.427,4.427,0,1,0-1.288,3.116,2.836,2.836,0,0,0,2.183,1.3c.078.007.157.01.236.01a2.946,2.946,0,0,0,1.774-.6,3.289,3.289,0,0,0,1.131-1.664c.034-.111.1-.367.1-.368l0-.01A7.744,7.744,0,0,0,22.741,14,8.751,8.751,0,0,0,14,5.259" style="fill:#ff9e00"/>
  </symbol>
  <!--* Mail //-->

    <!--* Viber //-->
  <symbol id="svg-viber" viewBox="0 0 48 48">
    <path fill="#fff" d="M24,5C21.361,5,13.33,5,8.89,9.054C6.246,11.688,5,15.494,5,21v3c0,5.506,1.246,9.312,3.921,11.976 c1.332,1.215,3.148,2.186,5.368,2.857L15,39.047v5.328C15,45,15.181,45,15.241,45c0.123,0,0.32-0.039,0.694-0.371 c0.09-0.089,0.75-0.803,3.96-4.399l0.324-0.363l0.485,0.031C21.779,39.965,22.888,40,24,40c2.639,0,10.67,0,15.11-4.055 C41.753,33.311,43,29.505,43,24v-3c0-5.506-1.246-9.312-3.921-11.976C34.67,5,26.639,5,24,5z"/>
    <path d="M33.451 28.854c-1.111-.936-1.624-1.219-3.158-2.14C29.654 26.331 28.68 26 28.169 26c-.349 0-.767.267-1.023.523C26.49 27.179 26.275 28 25.125 28c-1.125 0-3.09-1.145-4.5-2.625C19.145 23.965 18 22 18 20.875c0-1.15.806-1.38 1.462-2.037C19.718 18.583 20 18.165 20 17.816c0-.511-.331-1.47-.714-2.109-.921-1.535-1.203-2.048-2.14-3.158-.317-.376-.678-.548-1.056-.549-.639-.001-1.478.316-2.046.739-.854.637-1.747 1.504-1.986 2.584-.032.147-.051.295-.057.443-.046 1.125.396 2.267.873 3.234 1.123 2.279 2.609 4.485 4.226 6.455.517.63 1.08 1.216 1.663 1.782.566.582 1.152 1.145 1.782 1.663 1.97 1.617 4.176 3.103 6.455 4.226.958.472 2.086.906 3.2.874.159-.005.318-.023.477-.058 1.08-.238 1.947-1.132 2.584-1.986.423-.568.74-1.406.739-2.046C33.999 29.532 33.827 29.171 33.451 28.854zM34 24c-.552 0-1-.448-1-1v-1c0-4.962-4.038-9-9-9-.552 0-1-.448-1-1s.448-1 1-1c6.065 0 11 4.935 11 11v1C35 23.552 34.552 24 34 24zM27.858 22c-.444 0-.85-.298-.967-.748-.274-1.051-1.094-1.872-2.141-2.142-.535-.139-.856-.684-.718-1.219.138-.534.682-.855 1.219-.718 1.748.453 3.118 1.822 3.575 3.574.139.535-.181 1.08-.715 1.22C28.026 21.989 27.941 22 27.858 22z"/>
    <path d="M31,23c-0.552,0-1-0.448-1-1c0-3.188-2.494-5.818-5.678-5.986c-0.552-0.029-0.975-0.5-0.946-1.051 c0.029-0.552,0.508-0.976,1.051-0.946C28.674,14.241,32,17.748,32,22C32,22.552,31.552,23,31,23z"/>
    <path d="M24,4C19.5,4,12.488,4.414,8.216,8.316C5.196,11.323,4,15.541,4,21c0,0.452-0.002,0.956,0.002,1.5 C3.998,23.043,4,23.547,4,23.999c0,5.459,1.196,9.677,4.216,12.684c1.626,1.485,3.654,2.462,5.784,3.106v4.586 C14,45.971,15.049,46,15.241,46h0.009c0.494-0.002,0.921-0.244,1.349-0.624c0.161-0.143,2.02-2.215,4.042-4.481 C21.845,40.972,22.989,41,23.999,41c0,0,0,0,0,0s0,0,0,0c4.5,0,11.511-0.415,15.784-4.317c3.019-3.006,4.216-7.225,4.216-12.684 c0-0.452,0.002-0.956-0.002-1.5c0.004-0.544,0.002-1.047,0.002-1.5c0-5.459-1.196-9.677-4.216-12.684C35.511,4.414,28.5,4,24,4z M41,23.651l0,0.348c0,4.906-1.045,8.249-3.286,10.512C33.832,38,26.437,38,23.999,38c-0.742,0-1.946-0.001-3.367-0.1 C20.237,38.344,16,43.083,16,43.083V37.22c-2.104-0.505-4.183-1.333-5.714-2.708C8.045,32.248,7,28.905,7,23.999l0-0.348 c0-0.351-0.001-0.73,0.002-1.173C6.999,22.078,6.999,21.7,7,21.348L7,21c0-4.906,1.045-8.249,3.286-10.512 C14.167,6.999,21.563,6.999,24,6.999c2.437,0,9.832,0,13.713,3.489c2.242,2.263,3.286,5.606,3.286,10.512l0,0.348 c0,0.351,0.001,0.73-0.002,1.173C41,22.922,41,23.3,41,23.651z"/>
  </symbol>
  <!--* Viber //-->

</svg>